<?xml version="1.0" encoding="UTF-8"?>
<!DOCTYPE svg PUBLIC "-//W3C//DTD SVG 1.1//EN" "http://www.w3.org/Graphics/SVG/1.1/DTD/svg11.dtd">
<svg xmlns="http://www.w3.org/2000/svg" version="1.1" width="4096px" height="4096px" style="shape-rendering:geometricPrecision; text-rendering:geometricPrecision; image-rendering:optimizeQuality; fill-rule:evenodd; clip-rule:evenodd" xmlns:xlink="http://www.w3.org/1999/xlink">
<g><path style="opacity:1" fill="#5865f2" d="M 1985.5,-0.5 C 2026.83,-0.5 2068.17,-0.5 2109.5,-0.5C 2499.13,13.9944 2856.46,127.828 3181.5,341C 3514.46,565.072 3762.29,860.572 3925,1227.5C 4029.64,1469.08 4086.48,1721.41 4095.5,1984.5C 4095.5,2026.5 4095.5,2068.5 4095.5,2110.5C 4080.36,2512.09 3960.19,2878.42 3735,3209.5C 3524.32,3511.86 3252.82,3742.36 2920.5,3901C 2663.42,4021.02 2393.09,4085.85 2109.5,4095.5C 2068.17,4095.5 2026.83,4095.5 1985.5,4095.5C 1605.8,4081.42 1256.13,3972.59 936.5,3769C 617.443,3560.31 373.61,3285.14 205,2943.5C 78.2677,2680.24 9.76771,2402.57 -0.5,2110.5C -0.5,2068.5 -0.5,2026.5 -0.5,1984.5C 14.6428,1582.92 134.809,1216.58 360,885.5C 587.247,559.597 883.413,318.097 1248.5,161C 1484.3,62.0077 1729.96,8.17434 1985.5,-0.5 Z"/></g>
<g><path style="opacity:1" fill="#fefefe" d="M 1711.5,1118.5 C 1727.79,1150.72 1743.13,1183.38 1757.5,1216.5C 1763.47,1216.97 1769.47,1216.64 1775.5,1215.5C 1965.27,1189.52 2154.94,1190.18 2344.5,1217.5C 2363.16,1170.7 2385.16,1125.53 2410.5,1082C 2411.5,1081.83 2412.5,1081.67 2413.5,1081.5C 2595.75,1112.52 2770.92,1166.52 2939,1243.5C 2946.42,1253.36 2953.59,1263.36 2960.5,1273.5C 3062.5,1426.49 3145.33,1589.83 3209,1763.5C 3304.19,2032.47 3343.19,2309.47 3326,2594.5C 3323.61,2628.22 3320.61,2661.89 3317,2695.5C 3122.78,2838.03 2909.94,2945.36 2678.5,3017.5C 2675.93,3017.85 2673.43,3018.52 2671,3019.5C 2669.74,3019.24 2668.74,3018.57 2668,3017.5C 2616.75,2947.67 2571.25,2874.01 2531.5,2796.5C 2605.57,2768.63 2676.57,2734.63 2744.5,2694.5C 2745.81,2693.85 2747.14,2693.18 2748.5,2692.5C 2749.83,2691.83 2749.83,2691.17 2748.5,2690.5C 2730.88,2677.55 2713.55,2664.22 2696.5,2650.5C 2391.16,2790.87 2073.49,2828.37 1743.5,2763C 1625.8,2738.1 1512.3,2700.6 1403,2650.5C 1385.75,2664.53 1368.25,2678.2 1350.5,2691.5C 1364.9,2700.36 1379.56,2708.7 1394.5,2716.5C 1450.02,2747.43 1507.69,2773.76 1567.5,2795.5C 1565.39,2801.73 1562.72,2807.73 1559.5,2813.5C 1521.78,2884.63 1479.28,2952.63 1432,3017.5C 1431.2,3018.8 1430.03,3019.47 1428.5,3019.5C 1208.14,2951.65 1004.14,2851.98 816.5,2720.5C 805.182,2712.03 793.682,2703.7 782,2695.5C 737.139,2244.45 825.806,1821.79 1048,1427.5C 1083.08,1365.66 1120.41,1305.33 1160,1246.5C 1161.23,1244.27 1163.06,1242.77 1165.5,1242C 1327.06,1167.81 1495.4,1115.15 1670.5,1084C 1677.43,1082.34 1684.43,1081.68 1691.5,1082C 1698.07,1094.31 1704.73,1106.48 1711.5,1118.5 Z"/></g>
<g><path style="opacity:1" fill="#5950f2" d="M 1775.5,1215.5 C 1769.47,1216.64 1763.47,1216.97 1757.5,1216.5C 1743.13,1183.38 1727.79,1150.72 1711.5,1118.5C 1711.61,1117.88 1711.94,1117.38 1712.5,1117C 1717.06,1115.86 1721.56,1115.7 1726,1116.5C 1743.58,1149 1760.08,1182 1775.5,1215.5 Z"/></g>
<g><path style="opacity:1" fill="#584ff2" d="M 2678.5,3017.5 C 2909.94,2945.36 3122.78,2838.03 3317,2695.5C 3320.61,2661.89 3323.61,2628.22 3326,2594.5C 3343.19,2309.47 3304.19,2032.47 3209,1763.5C 3145.33,1589.83 3062.5,1426.49 2960.5,1273.5C 2961.25,1272.43 2962.25,1272.26 2963.5,1273C 2967.29,1274.98 2971.12,1276.81 2975,1278.5C 3076.59,1425.99 3160.26,1583.66 3226,1751.5C 3333.35,2032.62 3378.02,2323.62 3360,2624.5C 3357.59,2659.52 3354.92,2694.52 3352,2729.5C 3155.52,2873.91 2939.86,2981.91 2705,3053.5C 2694.96,3042.42 2686.12,3030.42 2678.5,3017.5 Z"/></g>
<g><path style="opacity:1" fill="#584ff2" d="M 1791.5,1967.5 C 1791.1,1968.53 1790.44,1968.69 1789.5,1968C 1728.28,1924.02 1661.61,1913.35 1589.5,1936C 1520.41,1963.75 1472.91,2012.59 1447,2082.5C 1419.84,2162.76 1425.84,2240.43 1465,2315.5C 1471.69,2326.9 1478.86,2337.9 1486.5,2348.5C 1453.96,2321.1 1430.12,2287.44 1415,2247.5C 1383.27,2160.42 1390.93,2077.09 1438,1997.5C 1495.25,1911.97 1574.75,1878.14 1676.5,1896C 1722.31,1908.22 1760.65,1932.05 1791.5,1967.5 Z"/></g>
<g><path style="opacity:1" fill="#584ff2" d="M 2643.5,1970.5 C 2577.41,1922.23 2505.75,1912.06 2428.5,1940C 2364.62,1969.55 2320.45,2017.39 2296,2083.5C 2267.06,2170.64 2276.39,2253.31 2324,2331.5C 2328.49,2337.27 2332.32,2342.94 2335.5,2348.5C 2289.98,2308.15 2261.48,2257.82 2250,2197.5C 2238.34,2132.13 2248.01,2070.13 2279,2011.5C 2315.66,1946.2 2370.82,1906.36 2444.5,1892C 2524.73,1883.81 2591.07,1909.98 2643.5,1970.5 Z"/></g>
<g><path style="opacity:1" fill="#5865f2" d="M 1791.5,1967.5 C 1834.32,2017.08 1855.98,2074.92 1856.5,2141C 1856.51,2208.64 1835.68,2268.81 1794,2321.5C 1728.28,2394.98 1648.11,2417.48 1553.5,2389C 1528.51,2379.52 1506.17,2366.02 1486.5,2348.5C 1478.86,2337.9 1471.69,2326.9 1465,2315.5C 1425.84,2240.43 1419.84,2162.76 1447,2082.5C 1472.91,2012.59 1520.41,1963.75 1589.5,1936C 1661.61,1913.35 1728.28,1924.02 1789.5,1968C 1790.44,1968.69 1791.1,1968.53 1791.5,1967.5 Z"/></g>
<g><path style="opacity:1" fill="#5865f2" d="M 2643.5,1970.5 C 2684.56,2018.83 2705.23,2075 2705.5,2139C 2706.73,2219.36 2679.07,2287.69 2622.5,2344C 2553.27,2403.54 2475.94,2416.87 2390.5,2384C 2370.38,2374.67 2352.04,2362.83 2335.5,2348.5C 2332.32,2342.94 2328.49,2337.27 2324,2331.5C 2276.39,2253.31 2267.06,2170.64 2296,2083.5C 2320.45,2017.39 2364.62,1969.55 2428.5,1940C 2505.75,1912.06 2577.41,1922.23 2643.5,1970.5 Z"/></g>
<g><path style="opacity:1" fill="#584ff2" d="M 2744.5,2694.5 C 2739.86,2691.18 2735.2,2687.84 2730.5,2684.5C 2388.02,2841.46 2035.02,2870.29 1671.5,2771C 1591.31,2748.07 1513.31,2719.24 1437.5,2684.5C 1424.02,2694.81 1410.69,2705.31 1397.5,2716C 1396.55,2716.48 1395.55,2716.65 1394.5,2716.5C 1379.56,2708.7 1364.9,2700.36 1350.5,2691.5C 1368.25,2678.2 1385.75,2664.53 1403,2650.5C 1512.3,2700.6 1625.8,2738.1 1743.5,2763C 2073.49,2828.37 2391.16,2790.87 2696.5,2650.5C 2713.55,2664.22 2730.88,2677.55 2748.5,2690.5C 2749.83,2691.17 2749.83,2691.83 2748.5,2692.5C 2747.14,2693.18 2745.81,2693.85 2744.5,2694.5 Z"/></g>
<g><path style="opacity:1" fill="#584ff2" d="M 816.5,2720.5 C 1004.14,2851.98 1208.14,2951.65 1428.5,3019.5C 1430.03,3019.47 1431.2,3018.8 1432,3017.5C 1479.28,2952.63 1521.78,2884.63 1559.5,2813.5C 1572.47,2818.65 1585.47,2823.82 1598.5,2829C 1599.91,2829.37 1600.91,2830.2 1601.5,2831.5C 1562.42,2908.33 1517.58,2981.33 1467,3050.5C 1465.88,3052.12 1464.38,3053.12 1462.5,3053.5C 1228.21,2981.59 1012.88,2873.75 816.5,2730C 815.182,2726.73 815.182,2723.56 816.5,2720.5 Z"/></g>
</svg>
