<?xml version="1.0" encoding="UTF-8"?>
<!DOCTYPE svg PUBLIC "-//W3C//DTD SVG 1.1//EN" "http://www.w3.org/Graphics/SVG/1.1/DTD/svg11.dtd">
<svg xmlns="http://www.w3.org/2000/svg" version="1.1" width="2048px" height="2048px" style="shape-rendering:geometricPrecision; text-rendering:geometricPrecision; image-rendering:optimizeQuality; fill-rule:evenodd; clip-rule:evenodd" xmlns:xlink="http://www.w3.org/1999/xlink">
<g><path style="opacity:0.998" fill="#fa5c5c" d="M 966.5,-0.5 C 1004.5,-0.5 1042.5,-0.5 1080.5,-0.5C 1309.4,15.2422 1511.4,95.7422 1686.5,241C 1878.27,407.267 1995.1,616.767 2037,869.5C 2041.1,901.911 2044.6,934.244 2047.5,966.5C 2047.5,1004.17 2047.5,1041.83 2047.5,1079.5C 2029.12,1338.44 1930.62,1560.44 1752,1745.5C 1592.58,1903.47 1401.08,2000.64 1177.5,2037C 1144.76,2041.14 1112.09,2044.64 1079.5,2047.5C 1041.83,2047.5 1004.17,2047.5 966.5,2047.5C 737.584,2031.75 535.584,1951.25 360.5,1806C 168.759,1639.89 51.9259,1430.39 10,1177.5C 5.90066,1145.09 2.40066,1112.75 -0.5,1080.5C -0.5,1042.5 -0.5,1004.5 -0.5,966.5C 15.2268,737.653 95.7268,535.653 241,360.5C 407.184,168.747 616.684,51.9136 869.5,10C 901.912,5.90066 934.245,2.40066 966.5,-0.5 Z"/></g>
<g><path style="opacity:1" fill="#fffefe" d="M 1333.5,782.5 C 1333.84,778.692 1333.34,775.026 1332,771.5C 1331.5,774.482 1331.34,777.482 1331.5,780.5C 1322.43,831.406 1292.43,861.572 1241.5,871C 1195.93,873.801 1162.1,855.301 1140,815.5C 1138.11,811.077 1136.28,806.744 1134.5,802.5C 1134.59,799.848 1133.92,797.515 1132.5,795.5C 1131.44,789.497 1130.28,783.497 1129,777.5C 1121.99,822.176 1097.16,852.009 1054.5,867C 1035.9,872.256 1017.23,872.756 998.5,868.5C 996.485,867.076 994.152,866.41 991.5,866.5C 950.175,851.835 925.841,822.835 918.5,779.5C 918.762,778.022 918.429,776.689 917.5,775.5C 916.534,777.396 916.201,779.396 916.5,781.5C 908.638,829.53 880.971,859.03 833.5,870C 777.613,875.145 739.446,851.645 719,799.5C 717.671,793.852 716.504,788.185 715.5,782.5C 715.819,780.25 715.319,778.25 714,776.5C 713.39,779.827 712.89,783.161 712.5,786.5C 702.93,828.241 677.597,855.407 636.5,868C 622.258,871.929 607.924,872.429 593.5,869.5C 591.485,868.076 589.152,867.41 586.5,867.5C 545.926,851.934 521.26,822.934 512.5,780.5C 511.547,760.194 511.214,739.86 511.5,719.5C 516.766,706.302 523.599,693.969 532,682.5C 562.319,641.511 597.486,605.011 637.5,573C 640.608,570.894 643.941,569.228 647.5,568C 770.301,564.145 893.134,562.645 1016,563.5C 1144.88,562.393 1273.71,564.227 1402.5,569C 1426.78,586.598 1449.28,606.431 1470,628.5C 1492.08,652.025 1511.75,677.358 1529,704.5C 1531.27,708.714 1533.27,713.047 1535,717.5C 1535.67,737.167 1535.67,756.833 1535,776.5C 1526.2,824.63 1498.37,855.797 1451.5,870C 1399.8,875.068 1362.64,854.235 1340,807.5C 1336.74,799.448 1334.57,791.115 1333.5,782.5 Z"/></g>
<g><path style="opacity:1" fill="#fb7d7d" d="M 511.5,719.5 C 511.214,739.86 511.547,760.194 512.5,780.5C 511.732,779.737 511.232,778.737 511,777.5C 510.171,757.996 510.338,738.662 511.5,719.5 Z"/></g>
<g><path style="opacity:1" fill="#fec0bf" d="M 1333.5,782.5 C 1332.83,781.833 1332.17,781.167 1331.5,780.5C 1331.34,777.482 1331.5,774.482 1332,771.5C 1333.34,775.026 1333.84,778.692 1333.5,782.5 Z"/></g>
<g><path style="opacity:1" fill="#fdaeae" d="M 918.5,779.5 C 917.833,780.167 917.167,780.833 916.5,781.5C 916.201,779.396 916.534,777.396 917.5,775.5C 918.429,776.689 918.762,778.022 918.5,779.5 Z"/></g>
<g><path style="opacity:1" fill="#fd9290" d="M 715.5,782.5 C 714.5,783.833 713.5,785.167 712.5,786.5C 712.89,783.161 713.39,779.827 714,776.5C 715.319,778.25 715.819,780.25 715.5,782.5 Z"/></g>
<g><path style="opacity:1" fill="#fd9796" d="M 1132.5,795.5 C 1133.92,797.515 1134.59,799.848 1134.5,802.5C 1133.08,800.485 1132.41,798.152 1132.5,795.5 Z"/></g>
<g><path style="opacity:1" fill="#fffefe" d="M 1213.5,902.5 C 1219.92,904.058 1226.59,904.724 1233.5,904.5C 1238.5,904.333 1243.5,904.167 1248.5,904C 1250.06,903.79 1251.39,903.29 1252.5,902.5C 1288.61,895.623 1316.28,876.623 1335.5,845.5C 1351.47,870.14 1373.14,887.64 1400.5,898C 1406.78,899.816 1413.11,901.316 1419.5,902.5C 1424.77,903.918 1430.27,904.585 1436,904.5C 1439.35,904.498 1442.52,904.165 1445.5,903.5C 1447.04,902.699 1448.71,902.366 1450.5,902.5C 1454.44,943.723 1456.94,985.057 1458,1026.5C 1459.02,1108.85 1458.52,1191.18 1456.5,1273.5C 1455.4,1281.65 1454.73,1289.98 1454.5,1298.5C 1453.52,1314.54 1452.19,1330.54 1450.5,1346.5C 1448.95,1350.57 1448.28,1354.9 1448.5,1359.5C 1445.42,1380.58 1440.58,1401.25 1434,1421.5C 1429.13,1433.68 1422.63,1444.85 1414.5,1455C 1400.48,1457.96 1386.48,1460.79 1372.5,1463.5C 1362.92,1464.01 1353.58,1465.35 1344.5,1467.5C 1340.88,1468.24 1337.21,1468.58 1333.5,1468.5C 1328.9,1468.28 1324.57,1468.95 1320.5,1470.5C 1308.17,1471.56 1295.84,1472.56 1283.5,1473.5C 1277.61,1473.45 1271.94,1474.12 1266.5,1475.5C 1257.83,1475.74 1249.16,1476.07 1240.5,1476.5C 1231.32,1476.78 1222.32,1477.45 1213.5,1478.5C 1091.2,1484.74 968.863,1485.07 846.5,1479.5C 832.4,1477.32 818.067,1476.32 803.5,1476.5C 775.382,1475.49 747.382,1473.15 719.5,1469.5C 712.797,1467.33 705.797,1466.33 698.5,1466.5C 693.759,1466.27 689.092,1465.6 684.5,1464.5C 678.431,1462.62 672.098,1461.62 665.5,1461.5C 654.391,1459.9 643.391,1457.74 632.5,1455C 621.64,1441.13 613.807,1425.63 609,1408.5C 604.282,1392.41 600.782,1376.08 598.5,1359.5C 598.638,1354.59 597.972,1349.92 596.5,1345.5C 595.368,1334.85 594.368,1324.18 593.5,1313.5C 592.161,1293.68 590.828,1274.02 589.5,1254.5C 588.401,1178.5 588.234,1102.5 589,1026.5C 590.171,985.762 592.504,945.096 596,904.5C 596.417,903.244 597.25,902.577 598.5,902.5C 599.263,903.268 600.263,903.768 601.5,904C 608.014,904.82 614.347,904.653 620.5,903.5C 659.709,897.934 690.042,878.601 711.5,845.5C 739.605,889.839 779.938,909.005 832.5,903C 869.124,895.842 897.457,876.676 917.5,845.5C 937.089,876.957 965.089,895.957 1001.5,902.5C 1008.1,904.03 1014.93,904.697 1022,904.5C 1027.01,904.499 1031.85,904.166 1036.5,903.5C 1077.44,899.124 1108.61,879.457 1130,844.5C 1149.22,876.217 1177.05,895.55 1213.5,902.5 Z"/></g>
<g><path style="opacity:1" fill="#febdbc" d="M 586.5,867.5 C 589.152,867.41 591.485,868.076 593.5,869.5C 590.848,869.59 588.515,868.924 586.5,867.5 Z"/></g>
<g><path style="opacity:1" fill="#fec2c1" d="M 991.5,866.5 C 994.152,866.41 996.485,867.076 998.5,868.5C 995.848,868.59 993.515,867.924 991.5,866.5 Z"/></g>
<g><path style="opacity:1" fill="#fdbbbb" d="M 598.5,902.5 C 605.799,903.35 613.132,903.683 620.5,903.5C 614.347,904.653 608.014,904.82 601.5,904C 600.263,903.768 599.263,903.268 598.5,902.5 Z"/></g>
<g><path style="opacity:1" fill="#fdc4c3" d="M 1001.5,902.5 C 1013.15,903.302 1024.82,903.635 1036.5,903.5C 1031.85,904.166 1027.01,904.499 1022,904.5C 1014.93,904.697 1008.1,904.03 1001.5,902.5 Z"/></g>
<g><path style="opacity:1" fill="#fec8c7" d="M 1213.5,902.5 C 1226.5,903.833 1239.5,903.833 1252.5,902.5C 1251.39,903.29 1250.06,903.79 1248.5,904C 1243.5,904.167 1238.5,904.333 1233.5,904.5C 1226.59,904.724 1219.92,904.058 1213.5,902.5 Z"/></g>
<g><path style="opacity:1" fill="#fdb7b6" d="M 1419.5,902.5 C 1428.15,903.146 1436.82,903.479 1445.5,903.5C 1442.52,904.165 1439.35,904.498 1436,904.5C 1430.27,904.585 1424.77,903.918 1419.5,902.5 Z"/></g>
<g><path style="opacity:1" fill="#fa5c5c" d="M 869.5,957.5 C 871.515,958.924 873.848,959.59 876.5,959.5C 898.515,966.353 917.182,978.519 932.5,996C 992.315,989.92 1052.15,990.086 1112,996.5C 1121.42,988.097 1131.26,979.931 1141.5,972C 1157.02,962.05 1174.02,956.717 1192.5,956C 1224.33,951.455 1252.66,959.121 1277.5,979C 1299.96,999.738 1317.13,1024.24 1329,1052.5C 1334.83,1065.84 1339.83,1079.51 1344,1093.5C 1354.86,1134.57 1366.02,1175.57 1377.5,1216.5C 1377.41,1219.15 1378.08,1221.49 1379.5,1223.5C 1386.87,1245.74 1392.54,1268.41 1396.5,1291.5C 1396.68,1298.75 1397.68,1305.75 1399.5,1312.5C 1399.66,1322.19 1399.32,1331.86 1398.5,1341.5C 1393.35,1366.97 1377.68,1380.31 1351.5,1381.5C 1337.18,1382.32 1322.85,1382.66 1308.5,1382.5C 1301.01,1382.54 1293.68,1381.54 1286.5,1379.5C 1283.5,1377.72 1280.16,1376.72 1276.5,1376.5C 1234.37,1363.26 1205.53,1335.93 1190,1294.5C 1185.99,1281.46 1183.83,1268.13 1183.5,1254.5C 1175.82,1255.41 1168.15,1256.41 1160.5,1257.5C 1155.97,1257.77 1151.64,1258.44 1147.5,1259.5C 1131.23,1261.6 1114.9,1262.93 1098.5,1263.5C 1088.99,1263.74 1079.65,1264.41 1070.5,1265.5C 1001.12,1268.45 932.121,1264.79 863.5,1254.5C 863.25,1263.92 862.25,1273.25 860.5,1282.5C 859.076,1284.51 858.41,1286.85 858.5,1289.5C 838.67,1344.97 799.337,1375.97 740.5,1382.5C 724.153,1382.64 707.82,1382.31 691.5,1381.5C 668.676,1379.59 654.343,1367.59 648.5,1345.5C 647.698,1333.85 647.365,1322.18 647.5,1310.5C 648.889,1305.73 649.556,1300.73 649.5,1295.5C 650.675,1288.47 652.009,1281.47 653.5,1274.5C 654.924,1272.49 655.59,1270.15 655.5,1267.5C 663.861,1235.39 672.527,1203.39 681.5,1171.5C 683.472,1168.92 684.472,1165.92 684.5,1162.5C 688.633,1146.77 692.966,1131.1 697.5,1115.5C 699.277,1112.5 700.277,1109.16 700.5,1105.5C 708.701,1069.73 723.201,1036.73 744,1006.5C 759.21,984.283 779.377,968.45 804.5,959C 814.835,956.396 825.335,955.229 836,955.5C 847.195,955.775 858.361,956.442 869.5,957.5 Z"/></g>
<g><path style="opacity:1" fill="#febfbe" d="M 869.5,957.5 C 872.152,957.41 874.485,958.076 876.5,959.5C 873.848,959.59 871.515,958.924 869.5,957.5 Z"/></g>
<g><path style="opacity:1" fill="#fffefe" d="M 1129.5,1165.5 C 1124.02,1166.49 1118.36,1166.82 1112.5,1166.5C 1098.84,1165.88 1085.18,1165.55 1071.5,1165.5C 1071.67,1182.84 1071.5,1200.17 1071,1217.5C 1064.24,1218.16 1057.41,1218.49 1050.5,1218.5C 1025.84,1217.8 1001.17,1217.63 976.5,1218C 975.508,1200.58 975.175,1183.08 975.5,1165.5C 957.81,1165.53 940.143,1166.2 922.5,1167.5C 920.5,1167.17 918.5,1166.83 916.5,1166.5C 919.471,1161.7 922.638,1157.03 926,1152.5C 956.651,1118.02 989.151,1085.35 1023.5,1054.5C 1057.52,1085.02 1089.68,1117.35 1120,1151.5C 1123.43,1156.05 1126.6,1160.72 1129.5,1165.5 Z"/></g>
<g><path style="opacity:1" fill="#fd9290" d="M 700.5,1105.5 C 700.277,1109.16 699.277,1112.5 697.5,1115.5C 697.723,1111.84 698.723,1108.5 700.5,1105.5 Z"/></g>
<g><path style="opacity:1" fill="#fe9d9b" d="M 684.5,1162.5 C 684.472,1165.92 683.472,1168.92 681.5,1171.5C 681.928,1168.22 682.928,1165.22 684.5,1162.5 Z"/></g>
<g><path style="opacity:1" fill="#fecccc" d="M 1129.5,1165.5 C 1130.04,1165.56 1130.38,1165.89 1130.5,1166.5C 1124.35,1167.82 1118.35,1167.82 1112.5,1166.5C 1118.36,1166.82 1124.02,1166.49 1129.5,1165.5 Z"/></g>
<g><path style="opacity:1" fill="#fd9392" d="M 1377.5,1216.5 C 1378.92,1218.51 1379.59,1220.85 1379.5,1223.5C 1378.08,1221.49 1377.41,1219.15 1377.5,1216.5 Z"/></g>
<g><path style="opacity:1" fill="#ffc1c0" d="M 1160.5,1257.5 C 1159.74,1258.27 1158.74,1258.77 1157.5,1259C 1154.18,1259.5 1150.85,1259.67 1147.5,1259.5C 1151.64,1258.44 1155.97,1257.77 1160.5,1257.5 Z"/></g>
<g><path style="opacity:1" fill="#fec2c1" d="M 1098.5,1263.5 C 1097.39,1264.29 1096.06,1264.79 1094.5,1265C 1086.51,1265.5 1078.51,1265.67 1070.5,1265.5C 1079.65,1264.41 1088.99,1263.74 1098.5,1263.5 Z"/></g>
<g><path style="opacity:1" fill="#fc8280" d="M 589.5,1254.5 C 590.828,1274.02 592.161,1293.68 593.5,1313.5C 590.587,1294.09 589.253,1274.43 589.5,1254.5 Z"/></g>
<g><path style="opacity:1" fill="#fd9695" d="M 655.5,1267.5 C 655.59,1270.15 654.924,1272.49 653.5,1274.5C 653.41,1271.85 654.076,1269.51 655.5,1267.5 Z"/></g>
<g><path style="opacity:1" fill="#fec2c1" d="M 860.5,1282.5 C 860.59,1285.15 859.924,1287.49 858.5,1289.5C 858.41,1286.85 859.076,1284.51 860.5,1282.5 Z"/></g>
<g><path style="opacity:1" fill="#fd8d8c" d="M 1456.5,1273.5 C 1456.9,1282.07 1456.23,1290.4 1454.5,1298.5C 1454.73,1289.98 1455.4,1281.65 1456.5,1273.5 Z"/></g>
<g><path style="opacity:1" fill="#fc8786" d="M 1396.5,1291.5 C 1398.32,1297.57 1399.32,1303.91 1399.5,1310.5C 1399.5,1311.17 1399.5,1311.83 1399.5,1312.5C 1397.68,1305.75 1396.68,1298.75 1396.5,1291.5 Z"/></g>
<g><path style="opacity:1" fill="#fc9796" d="M 649.5,1295.5 C 649.556,1300.73 648.889,1305.73 647.5,1310.5C 647.302,1305.25 647.969,1300.25 649.5,1295.5 Z"/></g>
<g><path style="opacity:1" fill="#febebd" d="M 647.5,1310.5 C 647.365,1322.18 647.698,1333.85 648.5,1345.5C 646.942,1339.08 646.276,1332.41 646.5,1325.5C 646.501,1320.32 646.834,1315.32 647.5,1310.5 Z"/></g>
<g><path style="opacity:1" fill="#ffc9c8" d="M 1399.5,1310.5 C 1400.66,1319.99 1400.82,1329.66 1400,1339.5C 1399.72,1340.42 1399.22,1341.08 1398.5,1341.5C 1399.32,1331.86 1399.66,1322.19 1399.5,1312.5C 1399.5,1311.83 1399.5,1311.17 1399.5,1310.5 Z"/></g>
<g><path style="opacity:1" fill="#fd9795" d="M 596.5,1345.5 C 597.972,1349.92 598.638,1354.59 598.5,1359.5C 597.028,1355.08 596.362,1350.41 596.5,1345.5 Z"/></g>
<g><path style="opacity:1" fill="#fd8e8d" d="M 1450.5,1346.5 C 1450.72,1351.1 1450.05,1355.43 1448.5,1359.5C 1448.28,1354.9 1448.95,1350.57 1450.5,1346.5 Z"/></g>
<g><path style="opacity:1" fill="#fc9190" d="M 1276.5,1376.5 C 1280.16,1376.72 1283.5,1377.72 1286.5,1379.5C 1282.84,1379.28 1279.5,1378.28 1276.5,1376.5 Z"/></g>
<g><path style="opacity:1" fill="#fb8180" d="M 691.5,1381.5 C 707.82,1382.31 724.153,1382.64 740.5,1382.5C 734.175,1383.17 727.675,1383.5 721,1383.5C 710.956,1383.66 701.122,1383 691.5,1381.5 Z"/></g>
<g><path style="opacity:1" fill="#fb8686" d="M 1351.5,1381.5 C 1343.22,1383.02 1334.72,1383.68 1326,1383.5C 1319.99,1383.5 1314.16,1383.17 1308.5,1382.5C 1322.85,1382.66 1337.18,1382.32 1351.5,1381.5 Z"/></g>
<g><path style="opacity:1" fill="#ffd0cf" d="M 665.5,1461.5 C 672.098,1461.62 678.431,1462.62 684.5,1464.5C 677.862,1464.63 671.529,1463.63 665.5,1461.5 Z"/></g>
<g><path style="opacity:1" fill="#ffcdcc" d="M 698.5,1466.5 C 705.797,1466.33 712.797,1467.33 719.5,1469.5C 712.281,1469.12 705.281,1468.12 698.5,1466.5 Z"/></g>
<g><path style="opacity:1" fill="#fc817e" d="M 1372.5,1463.5 C 1363.46,1465.97 1354.13,1467.3 1344.5,1467.5C 1353.58,1465.35 1362.92,1464.01 1372.5,1463.5 Z"/></g>
<g><path style="opacity:1" fill="#fd8d8b" d="M 1333.5,1468.5 C 1329.46,1470.18 1325.12,1470.84 1320.5,1470.5C 1324.57,1468.95 1328.9,1468.28 1333.5,1468.5 Z"/></g>
<g><path style="opacity:1" fill="#fc9897" d="M 1283.5,1473.5 C 1278.07,1475.01 1272.4,1475.68 1266.5,1475.5C 1271.94,1474.12 1277.61,1473.45 1283.5,1473.5 Z"/></g>
<g><path style="opacity:1" fill="#ffd2d1" d="M 803.5,1476.5 C 818.067,1476.32 832.4,1477.32 846.5,1479.5C 831.948,1479.51 817.615,1478.51 803.5,1476.5 Z"/></g>
<g><path style="opacity:1" fill="#fecfce" d="M 1240.5,1476.5 C 1231.72,1478.16 1222.72,1478.82 1213.5,1478.5C 1222.32,1477.45 1231.32,1476.78 1240.5,1476.5 Z"/></g>
</svg>
