<?xml version="1.0" encoding="UTF-8"?>
<!DOCTYPE svg PUBLIC "-//W3C//DTD SVG 1.1//EN" "http://www.w3.org/Graphics/SVG/1.1/DTD/svg11.dtd">
<svg xmlns="http://www.w3.org/2000/svg" version="1.1" width="980px" height="980px" style="shape-rendering:geometricPrecision; text-rendering:geometricPrecision; image-rendering:optimizeQuality; fill-rule:evenodd; clip-rule:evenodd" xmlns:xlink="http://www.w3.org/1999/xlink">
<g><path style="opacity:0.993" fill="#ff0000" d="M 979.5,421.5 C 979.5,463.5 979.5,505.5 979.5,547.5C 978.416,576.505 976.582,605.505 974,634.5C 973.667,634.167 973.333,633.833 973,633.5C 969.985,663.948 965.652,694.282 960,724.5C 940.67,780.645 901.17,811.645 841.5,817.5C 803.35,822.325 765.017,825.492 726.5,827C 726.833,827.333 727.167,827.667 727.5,828C 574.834,833.983 422.168,833.983 269.5,828C 269.833,827.667 270.167,827.333 270.5,827C 236.6,825.361 202.767,823.195 169,820.5C 148.656,818.844 128.489,816.011 108.5,812C 61.9635,798.286 31.9635,767.453 18.5,719.5C 9.40296,671.109 3.7363,622.942 1.5,575C 1.0041,548 0.337434,521.166 -0.5,494.5C -0.5,491.167 -0.5,487.833 -0.5,484.5C -0.889176,408.14 5.44416,332.306 18.5,257C 30.6834,213.925 57.6834,184.591 99.5,169C 106.195,167.643 112.862,166.31 119.5,165C 119.167,164.667 118.833,164.333 118.5,164C 167.636,157.857 216.969,153.523 266.5,151C 266.167,150.667 265.833,150.333 265.5,150C 415.498,145.386 565.498,145.386 715.5,150C 714.833,150.333 714.167,150.667 713.5,151C 751.246,152.698 788.913,155.032 826.5,158C 839.783,159.685 853.117,161.685 866.5,164C 866.167,164.333 865.833,164.667 865.5,165C 907.837,175.046 937.671,200.546 955,241.5C 956.731,247.192 958.564,252.859 960.5,258.5C 971.327,312.364 977.661,366.698 979.5,421.5 Z"/></g>
<g><path style="opacity:1" fill="#fffefe" d="M 398.5,344.5 C 403.307,347.405 408.307,350.072 413.5,352.5C 413.973,353.906 414.973,354.573 416.5,354.5C 420.034,356.766 423.7,358.766 427.5,360.5C 427.973,361.906 428.973,362.573 430.5,362.5C 451.725,375.612 473.391,387.946 495.5,399.5C 495.973,400.906 496.973,401.573 498.5,401.5C 503.483,404.995 508.817,407.995 514.5,410.5C 514.973,411.906 515.973,412.573 517.5,412.5C 523.259,416.258 529.259,419.591 535.5,422.5C 535.973,423.906 536.973,424.573 538.5,424.5C 542.034,426.766 545.7,428.766 549.5,430.5C 549.973,431.906 550.973,432.573 552.5,432.5C 584.81,451.324 617.144,470.157 649.5,489C 640.93,494.419 632.264,499.586 623.5,504.5C 621.821,504.285 620.821,504.952 620.5,506.5C 615.127,509.518 609.794,512.518 604.5,515.5C 602.973,515.427 601.973,516.094 601.5,517.5C 599.216,517.975 597.216,518.975 595.5,520.5C 593.973,520.427 592.973,521.094 592.5,522.5C 580.262,529.782 567.929,536.782 555.5,543.5C 553.973,543.427 552.973,544.094 552.5,545.5C 548.7,547.234 545.034,549.234 541.5,551.5C 539.566,552.11 537.899,553.11 536.5,554.5C 534.973,554.427 533.973,555.094 533.5,556.5C 522.502,561.997 511.835,567.997 501.5,574.5C 499.973,574.427 498.973,575.094 498.5,576.5C 493.127,579.518 487.794,582.518 482.5,585.5C 480.973,585.427 479.973,586.094 479.5,587.5C 477.517,588.471 475.517,589.471 473.5,590.5C 471.973,590.427 470.973,591.094 470.5,592.5C 464.875,594.979 459.542,597.979 454.5,601.5C 452.973,601.427 451.973,602.094 451.5,603.5C 449.326,603.75 447.659,604.75 446.5,606.5C 440.46,609.851 434.46,613.184 428.5,616.5C 426.973,616.427 425.973,617.094 425.5,618.5C 416.24,623.107 407.24,628.107 398.5,633.5C 397.167,585.671 396.5,537.505 396.5,489C 396.5,440.495 397.167,392.329 398.5,344.5 Z"/></g>
<g><path style="opacity:1" fill="#ff6767" d="M 396.5,343.5 C 395.167,440.5 395.167,537.5 396.5,634.5C 396.44,635.043 396.107,635.376 395.5,635.5C 394.167,537.833 394.167,440.167 395.5,342.5C 396.107,342.624 396.44,342.957 396.5,343.5 Z"/></g>
<g><path style="opacity:1" fill="#ffcccc" d="M 396.5,343.5 C 397.492,343.328 398.158,343.662 398.5,344.5C 397.167,392.329 396.5,440.495 396.5,489C 396.5,537.505 397.167,585.671 398.5,633.5C 398.158,634.338 397.492,634.672 396.5,634.5C 395.167,537.5 395.167,440.5 396.5,343.5 Z"/></g>
<g><path style="opacity:1" fill="#ff615b" d="M 413.5,352.5 C 415.027,352.427 416.027,353.094 416.5,354.5C 414.973,354.573 413.973,353.906 413.5,352.5 Z"/></g>
<g><path style="opacity:1" fill="#ff615b" d="M 427.5,360.5 C 429.027,360.427 430.027,361.094 430.5,362.5C 428.973,362.573 427.973,361.906 427.5,360.5 Z"/></g>
<g><path style="opacity:1" fill="#ff625d" d="M 495.5,399.5 C 497.027,399.427 498.027,400.094 498.5,401.5C 496.973,401.573 495.973,400.906 495.5,399.5 Z"/></g>
<g><path style="opacity:1" fill="#ff6c67" d="M 514.5,410.5 C 516.027,410.427 517.027,411.094 517.5,412.5C 515.973,412.573 514.973,411.906 514.5,410.5 Z"/></g>
<g><path style="opacity:1" fill="#ff6460" d="M 535.5,422.5 C 537.027,422.427 538.027,423.094 538.5,424.5C 536.973,424.573 535.973,423.906 535.5,422.5 Z"/></g>
<g><path style="opacity:1" fill="#ff625d" d="M 549.5,430.5 C 551.027,430.427 552.027,431.094 552.5,432.5C 550.973,432.573 549.973,431.906 549.5,430.5 Z"/></g>
<g><path style="opacity:1" fill="#ffb0af" d="M 623.5,504.5 C 622.71,505.401 621.71,506.068 620.5,506.5C 620.821,504.952 621.821,504.285 623.5,504.5 Z"/></g>
<g><path style="opacity:1" fill="#ff655d" d="M 604.5,515.5 C 604.027,516.906 603.027,517.573 601.5,517.5C 601.973,516.094 602.973,515.427 604.5,515.5 Z"/></g>
<g><path style="opacity:1" fill="#ff7571" d="M 595.5,520.5 C 595.027,521.906 594.027,522.573 592.5,522.5C 592.973,521.094 593.973,520.427 595.5,520.5 Z"/></g>
<g><path style="opacity:1" fill="#ff7068" d="M 555.5,543.5 C 555.027,544.906 554.027,545.573 552.5,545.5C 552.973,544.094 553.973,543.427 555.5,543.5 Z"/></g>
<g><path style="opacity:1" fill="#ff564a" d="M 541.5,551.5 C 540.656,553.759 538.989,554.759 536.5,554.5C 537.899,553.11 539.566,552.11 541.5,551.5 Z"/></g>
<g><path style="opacity:1" fill="#ff645c" d="M 536.5,554.5 C 536.027,555.906 535.027,556.573 533.5,556.5C 533.973,555.094 534.973,554.427 536.5,554.5 Z"/></g>
<g><path style="opacity:1" fill="#ff6d64" d="M 501.5,574.5 C 501.027,575.906 500.027,576.573 498.5,576.5C 498.973,575.094 499.973,574.427 501.5,574.5 Z"/></g>
<g><path style="opacity:1" fill="#ff645b" d="M 482.5,585.5 C 482.027,586.906 481.027,587.573 479.5,587.5C 479.973,586.094 480.973,585.427 482.5,585.5 Z"/></g>
<g><path style="opacity:1" fill="#ff7a76" d="M 473.5,590.5 C 473.027,591.906 472.027,592.573 470.5,592.5C 470.973,591.094 471.973,590.427 473.5,590.5 Z"/></g>
<g><path style="opacity:1" fill="#ff716d" d="M 454.5,601.5 C 454.027,602.906 453.027,603.573 451.5,603.5C 451.973,602.094 452.973,601.427 454.5,601.5 Z"/></g>
<g><path style="opacity:1" fill="#ff534a" d="M 451.5,603.5 C 450.514,605.408 448.848,606.408 446.5,606.5C 447.659,604.75 449.326,603.75 451.5,603.5 Z"/></g>
<g><path style="opacity:1" fill="#ff6259" d="M 428.5,616.5 C 428.027,617.906 427.027,618.573 425.5,618.5C 425.973,617.094 426.973,616.427 428.5,616.5 Z"/></g>
</svg>
